<mxfile host="app.diagrams.net" modified="2023-12-28T08:34:15.346Z" agent="Mozilla/5.0 (Macintosh; Intel Mac OS X 10_15_7) AppleWebKit/537.36 (KHTML, like Gecko) Chrome/120.0.0.0 Safari/537.36" etag="iKLjjeqUafwJhKc608NP" version="22.1.12" type="github">
  <diagram name="第 1 页" id="XTNMqFcawAKdZUNlb2e_">
    <mxGraphModel dx="1831" dy="1708" grid="1" gridSize="10" guides="1" tooltips="1" connect="1" arrows="1" fold="1" page="1" pageScale="1" pageWidth="827" pageHeight="1169" math="0" shadow="0">
      <root>
        <mxCell id="0" />
        <mxCell id="1" parent="0" />
        <mxCell id="IonNagwK2GZ255zKWjIW-7" value="" style="edgeStyle=orthogonalEdgeStyle;rounded=0;orthogonalLoop=1;jettySize=auto;html=1;" edge="1" parent="1" source="IonNagwK2GZ255zKWjIW-5" target="IonNagwK2GZ255zKWjIW-6">
          <mxGeometry relative="1" as="geometry" />
        </mxCell>
        <mxCell id="IonNagwK2GZ255zKWjIW-5" value="工况mqtt" style="strokeWidth=2;html=1;shape=mxgraph.flowchart.start_1;whiteSpace=wrap;" vertex="1" parent="1">
          <mxGeometry x="130" y="218.75" width="70" height="50" as="geometry" />
        </mxCell>
        <mxCell id="IonNagwK2GZ255zKWjIW-9" value="" style="edgeStyle=orthogonalEdgeStyle;rounded=0;orthogonalLoop=1;jettySize=auto;html=1;" edge="1" parent="1" source="IonNagwK2GZ255zKWjIW-6" target="IonNagwK2GZ255zKWjIW-8">
          <mxGeometry relative="1" as="geometry" />
        </mxCell>
        <mxCell id="IonNagwK2GZ255zKWjIW-49" style="edgeStyle=orthogonalEdgeStyle;rounded=0;orthogonalLoop=1;jettySize=auto;html=1;" edge="1" parent="1" source="IonNagwK2GZ255zKWjIW-6" target="IonNagwK2GZ255zKWjIW-48">
          <mxGeometry relative="1" as="geometry" />
        </mxCell>
        <mxCell id="IonNagwK2GZ255zKWjIW-50" style="edgeStyle=orthogonalEdgeStyle;rounded=0;orthogonalLoop=1;jettySize=auto;html=1;exitX=0.75;exitY=1;exitDx=0;exitDy=0;entryX=0;entryY=0.5;entryDx=0;entryDy=0;curved=1;" edge="1" parent="1" source="IonNagwK2GZ255zKWjIW-6" target="IonNagwK2GZ255zKWjIW-47">
          <mxGeometry relative="1" as="geometry" />
        </mxCell>
        <mxCell id="IonNagwK2GZ255zKWjIW-170" value="上下线" style="edgeLabel;html=1;align=center;verticalAlign=middle;resizable=0;points=[];" vertex="1" connectable="0" parent="IonNagwK2GZ255zKWjIW-50">
          <mxGeometry x="-0.0385" y="11" relative="1" as="geometry">
            <mxPoint as="offset" />
          </mxGeometry>
        </mxCell>
        <mxCell id="IonNagwK2GZ255zKWjIW-6" value="EMQX服务器&lt;br&gt;支持本地存储" style="rounded=1;whiteSpace=wrap;html=1;absoluteArcSize=1;arcSize=14;strokeWidth=2;" vertex="1" parent="1">
          <mxGeometry x="260" y="217.5" width="80" height="52.5" as="geometry" />
        </mxCell>
        <mxCell id="IonNagwK2GZ255zKWjIW-11" value="" style="edgeStyle=orthogonalEdgeStyle;rounded=0;orthogonalLoop=1;jettySize=auto;html=1;" edge="1" parent="1" source="IonNagwK2GZ255zKWjIW-8" target="IonNagwK2GZ255zKWjIW-10">
          <mxGeometry relative="1" as="geometry" />
        </mxCell>
        <mxCell id="IonNagwK2GZ255zKWjIW-8" value="kafka&lt;br&gt;mqtt_raw_data" style="rounded=1;whiteSpace=wrap;html=1;absoluteArcSize=1;arcSize=14;strokeWidth=2;" vertex="1" parent="1">
          <mxGeometry x="380" y="217.5" width="80" height="52.5" as="geometry" />
        </mxCell>
        <mxCell id="IonNagwK2GZ255zKWjIW-13" value="" style="edgeStyle=orthogonalEdgeStyle;rounded=0;orthogonalLoop=1;jettySize=auto;html=1;" edge="1" parent="1" source="IonNagwK2GZ255zKWjIW-10" target="IonNagwK2GZ255zKWjIW-12">
          <mxGeometry relative="1" as="geometry" />
        </mxCell>
        <mxCell id="IonNagwK2GZ255zKWjIW-150" style="edgeStyle=orthogonalEdgeStyle;rounded=0;orthogonalLoop=1;jettySize=auto;html=1;entryX=0.5;entryY=0;entryDx=0;entryDy=0;" edge="1" parent="1" source="IonNagwK2GZ255zKWjIW-10" target="IonNagwK2GZ255zKWjIW-6">
          <mxGeometry relative="1" as="geometry">
            <Array as="points">
              <mxPoint x="530" y="190" />
              <mxPoint x="300" y="190" />
            </Array>
          </mxGeometry>
        </mxCell>
        <mxCell id="IonNagwK2GZ255zKWjIW-151" value="在线状态校正" style="edgeLabel;html=1;align=center;verticalAlign=middle;resizable=0;points=[];" vertex="1" connectable="0" parent="IonNagwK2GZ255zKWjIW-150">
          <mxGeometry x="-0.3058" relative="1" as="geometry">
            <mxPoint as="offset" />
          </mxGeometry>
        </mxCell>
        <mxCell id="IonNagwK2GZ255zKWjIW-10" value="iothub-access" style="rounded=1;whiteSpace=wrap;html=1;absoluteArcSize=1;arcSize=14;strokeWidth=2;fillColor=#ffe6cc;strokeColor=#d79b00;" vertex="1" parent="1">
          <mxGeometry x="500" y="217.5" width="100" height="52.5" as="geometry" />
        </mxCell>
        <mxCell id="IonNagwK2GZ255zKWjIW-20" value="" style="edgeStyle=orthogonalEdgeStyle;rounded=0;orthogonalLoop=1;jettySize=auto;html=1;entryX=0;entryY=0.75;entryDx=0;entryDy=0;" edge="1" parent="1" source="IonNagwK2GZ255zKWjIW-12" target="IonNagwK2GZ255zKWjIW-16">
          <mxGeometry relative="1" as="geometry" />
        </mxCell>
        <mxCell id="IonNagwK2GZ255zKWjIW-179" value="N" style="edgeLabel;html=1;align=center;verticalAlign=middle;resizable=0;points=[];" vertex="1" connectable="0" parent="IonNagwK2GZ255zKWjIW-20">
          <mxGeometry x="-0.3453" y="-2" relative="1" as="geometry">
            <mxPoint as="offset" />
          </mxGeometry>
        </mxCell>
        <mxCell id="IonNagwK2GZ255zKWjIW-41" value="" style="edgeStyle=orthogonalEdgeStyle;rounded=0;orthogonalLoop=1;jettySize=auto;html=1;" edge="1" parent="1" source="IonNagwK2GZ255zKWjIW-12" target="IonNagwK2GZ255zKWjIW-14">
          <mxGeometry relative="1" as="geometry" />
        </mxCell>
        <mxCell id="IonNagwK2GZ255zKWjIW-180" value="Y" style="edgeLabel;html=1;align=center;verticalAlign=middle;resizable=0;points=[];" vertex="1" connectable="0" parent="IonNagwK2GZ255zKWjIW-41">
          <mxGeometry x="0.2725" y="2" relative="1" as="geometry">
            <mxPoint as="offset" />
          </mxGeometry>
        </mxCell>
        <mxCell id="IonNagwK2GZ255zKWjIW-12" value="分流&lt;br&gt;分发规则" style="strokeWidth=2;html=1;shape=mxgraph.flowchart.decision;whiteSpace=wrap;" vertex="1" parent="1">
          <mxGeometry x="620" y="213.75" width="70" height="60" as="geometry" />
        </mxCell>
        <mxCell id="IonNagwK2GZ255zKWjIW-185" value="" style="edgeStyle=orthogonalEdgeStyle;rounded=0;orthogonalLoop=1;jettySize=auto;html=1;" edge="1" parent="1" source="IonNagwK2GZ255zKWjIW-14" target="IonNagwK2GZ255zKWjIW-64">
          <mxGeometry relative="1" as="geometry" />
        </mxCell>
        <mxCell id="IonNagwK2GZ255zKWjIW-14" value="kafka&lt;br&gt;raw_properties" style="rounded=1;whiteSpace=wrap;html=1;absoluteArcSize=1;arcSize=14;strokeWidth=2;" vertex="1" parent="1">
          <mxGeometry x="610" y="300" width="90" height="50" as="geometry" />
        </mxCell>
        <mxCell id="IonNagwK2GZ255zKWjIW-23" style="edgeStyle=orthogonalEdgeStyle;rounded=0;orthogonalLoop=1;jettySize=auto;html=1;entryX=0;entryY=0.25;entryDx=0;entryDy=0;" edge="1" parent="1" source="IonNagwK2GZ255zKWjIW-16" target="IonNagwK2GZ255zKWjIW-21">
          <mxGeometry relative="1" as="geometry" />
        </mxCell>
        <mxCell id="IonNagwK2GZ255zKWjIW-155" style="edgeStyle=orthogonalEdgeStyle;rounded=0;orthogonalLoop=1;jettySize=auto;html=1;entryX=0.75;entryY=0;entryDx=0;entryDy=0;" edge="1" parent="1" source="IonNagwK2GZ255zKWjIW-16" target="IonNagwK2GZ255zKWjIW-10">
          <mxGeometry relative="1" as="geometry">
            <Array as="points">
              <mxPoint x="800" y="197" />
              <mxPoint x="575" y="197" />
            </Array>
          </mxGeometry>
        </mxCell>
        <mxCell id="IonNagwK2GZ255zKWjIW-156" value="online处理" style="edgeLabel;html=1;align=center;verticalAlign=middle;resizable=0;points=[];" vertex="1" connectable="0" parent="IonNagwK2GZ255zKWjIW-155">
          <mxGeometry x="0.123" y="-2" relative="1" as="geometry">
            <mxPoint as="offset" />
          </mxGeometry>
        </mxCell>
        <mxCell id="IonNagwK2GZ255zKWjIW-16" value="kafka&lt;br style=&quot;border-color: var(--border-color);&quot;&gt;$tenant_input" style="rounded=0;whiteSpace=wrap;html=1;dashed=1;" vertex="1" parent="1">
          <mxGeometry x="740" y="213.75" width="120" height="40" as="geometry" />
        </mxCell>
        <mxCell id="IonNagwK2GZ255zKWjIW-22" style="edgeStyle=orthogonalEdgeStyle;rounded=0;orthogonalLoop=1;jettySize=auto;html=1;entryX=-0.006;entryY=0.904;entryDx=0;entryDy=0;entryPerimeter=0;" edge="1" parent="1" source="IonNagwK2GZ255zKWjIW-17" target="IonNagwK2GZ255zKWjIW-21">
          <mxGeometry relative="1" as="geometry" />
        </mxCell>
        <mxCell id="IonNagwK2GZ255zKWjIW-17" value="tenant_device&lt;br style=&quot;border-color: var(--border-color);&quot;&gt;_history_cache" style="rounded=0;whiteSpace=wrap;html=1;dashed=1;" vertex="1" parent="1">
          <mxGeometry x="740" y="253.75" width="120" height="40" as="geometry" />
        </mxCell>
        <mxCell id="IonNagwK2GZ255zKWjIW-18" style="edgeStyle=orthogonalEdgeStyle;rounded=0;orthogonalLoop=1;jettySize=auto;html=1;exitX=0.5;exitY=1;exitDx=0;exitDy=0;" edge="1" parent="1" source="IonNagwK2GZ255zKWjIW-16" target="IonNagwK2GZ255zKWjIW-16">
          <mxGeometry relative="1" as="geometry" />
        </mxCell>
        <mxCell id="IonNagwK2GZ255zKWjIW-27" style="edgeStyle=orthogonalEdgeStyle;rounded=0;orthogonalLoop=1;jettySize=auto;html=1;" edge="1" parent="1" source="IonNagwK2GZ255zKWjIW-90" target="IonNagwK2GZ255zKWjIW-25">
          <mxGeometry relative="1" as="geometry">
            <mxPoint x="1070" y="280" as="sourcePoint" />
          </mxGeometry>
        </mxCell>
        <mxCell id="IonNagwK2GZ255zKWjIW-95" style="edgeStyle=orthogonalEdgeStyle;rounded=0;orthogonalLoop=1;jettySize=auto;html=1;exitX=0.54;exitY=1.021;exitDx=0;exitDy=0;exitPerimeter=0;" edge="1" parent="1" source="IonNagwK2GZ255zKWjIW-21" target="IonNagwK2GZ255zKWjIW-94">
          <mxGeometry relative="1" as="geometry">
            <mxPoint x="1240" y="270" as="sourcePoint" />
          </mxGeometry>
        </mxCell>
        <mxCell id="IonNagwK2GZ255zKWjIW-97" value="回补" style="edgeLabel;html=1;align=center;verticalAlign=middle;resizable=0;points=[];" vertex="1" connectable="0" parent="IonNagwK2GZ255zKWjIW-95">
          <mxGeometry x="-0.6027" y="-1" relative="1" as="geometry">
            <mxPoint as="offset" />
          </mxGeometry>
        </mxCell>
        <mxCell id="IonNagwK2GZ255zKWjIW-140" value="" style="edgeStyle=orthogonalEdgeStyle;rounded=0;orthogonalLoop=1;jettySize=auto;html=1;exitX=0.423;exitY=-0.012;exitDx=0;exitDy=0;exitPerimeter=0;" edge="1" parent="1" source="IonNagwK2GZ255zKWjIW-21" target="IonNagwK2GZ255zKWjIW-24">
          <mxGeometry relative="1" as="geometry" />
        </mxCell>
        <mxCell id="IonNagwK2GZ255zKWjIW-141" value="alarm" style="edgeLabel;html=1;align=center;verticalAlign=middle;resizable=0;points=[];" vertex="1" connectable="0" parent="IonNagwK2GZ255zKWjIW-140">
          <mxGeometry x="0.1008" y="-2" relative="1" as="geometry">
            <mxPoint as="offset" />
          </mxGeometry>
        </mxCell>
        <mxCell id="IonNagwK2GZ255zKWjIW-21" value="flink-eca" style="rounded=1;whiteSpace=wrap;html=1;strokeWidth=2;" vertex="1" parent="1">
          <mxGeometry x="1010" y="218.75" width="430" height="60" as="geometry" />
        </mxCell>
        <mxCell id="IonNagwK2GZ255zKWjIW-24" value="mongoDB&lt;br&gt;alarm" style="strokeWidth=2;html=1;shape=mxgraph.flowchart.direct_data;whiteSpace=wrap;" vertex="1" parent="1">
          <mxGeometry x="1141" y="110" width="100" height="60" as="geometry" />
        </mxCell>
        <mxCell id="IonNagwK2GZ255zKWjIW-25" value="persistent-realTime-tdengine&lt;br&gt;(flume)" style="rounded=1;whiteSpace=wrap;html=1;strokeWidth=2;" vertex="1" parent="1">
          <mxGeometry x="990" y="410" width="160" height="50" as="geometry" />
        </mxCell>
        <mxCell id="IonNagwK2GZ255zKWjIW-26" value="persistent-realTime-tdengine-recoup&lt;br style=&quot;border-color: var(--border-color);&quot;&gt;(flume)" style="rounded=1;whiteSpace=wrap;html=1;strokeWidth=2;" vertex="1" parent="1">
          <mxGeometry x="1160" y="410" width="165" height="50" as="geometry" />
        </mxCell>
        <mxCell id="IonNagwK2GZ255zKWjIW-34" value="" style="edgeStyle=orthogonalEdgeStyle;rounded=0;orthogonalLoop=1;jettySize=auto;html=1;entryX=1;entryY=0.5;entryDx=0;entryDy=0;entryPerimeter=0;" edge="1" parent="1" source="IonNagwK2GZ255zKWjIW-32" target="IonNagwK2GZ255zKWjIW-35">
          <mxGeometry relative="1" as="geometry">
            <mxPoint x="760" y="490" as="targetPoint" />
          </mxGeometry>
        </mxCell>
        <mxCell id="IonNagwK2GZ255zKWjIW-32" value="persistent-hudi" style="rounded=1;whiteSpace=wrap;html=1;strokeWidth=2;" vertex="1" parent="1">
          <mxGeometry x="840" y="480" width="120" height="40" as="geometry" />
        </mxCell>
        <mxCell id="IonNagwK2GZ255zKWjIW-35" value="hudi" style="strokeWidth=2;html=1;shape=mxgraph.flowchart.direct_data;whiteSpace=wrap;" vertex="1" parent="1">
          <mxGeometry x="660" y="480" width="100" height="40" as="geometry" />
        </mxCell>
        <mxCell id="IonNagwK2GZ255zKWjIW-38" style="edgeStyle=orthogonalEdgeStyle;rounded=0;orthogonalLoop=1;jettySize=auto;html=1;entryX=1;entryY=0.5;entryDx=0;entryDy=0;entryPerimeter=0;exitX=0.5;exitY=1;exitDx=0;exitDy=0;" edge="1" parent="1" source="IonNagwK2GZ255zKWjIW-26" target="IonNagwK2GZ255zKWjIW-104">
          <mxGeometry relative="1" as="geometry">
            <mxPoint x="1130" y="506" as="targetPoint" />
          </mxGeometry>
        </mxCell>
        <mxCell id="IonNagwK2GZ255zKWjIW-44" style="edgeStyle=orthogonalEdgeStyle;rounded=0;orthogonalLoop=1;jettySize=auto;html=1;" edge="1" parent="1" source="IonNagwK2GZ255zKWjIW-42" target="IonNagwK2GZ255zKWjIW-43">
          <mxGeometry relative="1" as="geometry" />
        </mxCell>
        <mxCell id="IonNagwK2GZ255zKWjIW-42" value="工况-云云对接" style="strokeWidth=2;html=1;shape=mxgraph.flowchart.start_1;whiteSpace=wrap;" vertex="1" parent="1">
          <mxGeometry x="130" y="300" width="70" height="50" as="geometry" />
        </mxCell>
        <mxCell id="IonNagwK2GZ255zKWjIW-43" value="kafka&lt;br&gt;$tenant_input&lt;br&gt;_thrid_party" style="rounded=1;whiteSpace=wrap;html=1;absoluteArcSize=1;arcSize=14;strokeWidth=2;" vertex="1" parent="1">
          <mxGeometry x="380" y="298.75" width="80" height="52.5" as="geometry" />
        </mxCell>
        <mxCell id="IonNagwK2GZ255zKWjIW-51" style="edgeStyle=orthogonalEdgeStyle;rounded=0;orthogonalLoop=1;jettySize=auto;html=1;curved=1;" edge="1" parent="1">
          <mxGeometry relative="1" as="geometry">
            <mxPoint x="440" y="445.04999999999995" as="sourcePoint" />
            <mxPoint x="530" y="268.75" as="targetPoint" />
          </mxGeometry>
        </mxCell>
        <mxCell id="IonNagwK2GZ255zKWjIW-47" value="kafka&lt;br style=&quot;border-color: var(--border-color);&quot;&gt;mqtt_&lt;br&gt;connect_ev" style="rounded=1;whiteSpace=wrap;html=1;absoluteArcSize=1;arcSize=14;strokeWidth=2;" vertex="1" parent="1">
          <mxGeometry x="380" y="420" width="80" height="52.5" as="geometry" />
        </mxCell>
        <mxCell id="IonNagwK2GZ255zKWjIW-52" style="edgeStyle=orthogonalEdgeStyle;rounded=0;orthogonalLoop=1;jettySize=auto;html=1;entryX=0.5;entryY=1;entryDx=0;entryDy=0;curved=1;" edge="1" parent="1" source="IonNagwK2GZ255zKWjIW-48" target="IonNagwK2GZ255zKWjIW-10">
          <mxGeometry relative="1" as="geometry" />
        </mxCell>
        <mxCell id="IonNagwK2GZ255zKWjIW-48" value="kafka&lt;br style=&quot;border-color: var(--border-color);&quot;&gt;mqtt_&lt;br&gt;connect_err" style="rounded=1;whiteSpace=wrap;html=1;absoluteArcSize=1;arcSize=14;strokeWidth=2;" vertex="1" parent="1">
          <mxGeometry x="260" y="472.5" width="80" height="52.5" as="geometry" />
        </mxCell>
        <mxCell id="IonNagwK2GZ255zKWjIW-73" value="" style="edgeStyle=orthogonalEdgeStyle;rounded=0;orthogonalLoop=1;jettySize=auto;html=1;" edge="1" parent="1" source="IonNagwK2GZ255zKWjIW-53" target="IonNagwK2GZ255zKWjIW-54">
          <mxGeometry relative="1" as="geometry" />
        </mxCell>
        <mxCell id="IonNagwK2GZ255zKWjIW-53" value="工况-云云对接-历史数据" style="strokeWidth=2;html=1;shape=mxgraph.flowchart.start_1;whiteSpace=wrap;" vertex="1" parent="1">
          <mxGeometry x="120" y="550" width="80" height="60" as="geometry" />
        </mxCell>
        <mxCell id="IonNagwK2GZ255zKWjIW-54" value="kafka&lt;br&gt;$tenant_input&lt;br&gt;_thrid_party_&lt;br&gt;history" style="rounded=1;whiteSpace=wrap;html=1;absoluteArcSize=1;arcSize=14;strokeWidth=2;" vertex="1" parent="1">
          <mxGeometry x="260" y="550" width="80" height="60.5" as="geometry" />
        </mxCell>
        <mxCell id="IonNagwK2GZ255zKWjIW-55" style="edgeStyle=orthogonalEdgeStyle;rounded=0;orthogonalLoop=1;jettySize=auto;html=1;entryX=0.65;entryY=1.038;entryDx=0;entryDy=0;entryPerimeter=0;curved=1;" edge="1" parent="1" source="IonNagwK2GZ255zKWjIW-54" target="IonNagwK2GZ255zKWjIW-10">
          <mxGeometry relative="1" as="geometry" />
        </mxCell>
        <mxCell id="IonNagwK2GZ255zKWjIW-68" value="" style="edgeStyle=orthogonalEdgeStyle;rounded=0;orthogonalLoop=1;jettySize=auto;html=1;" edge="1" parent="1" source="IonNagwK2GZ255zKWjIW-58" target="IonNagwK2GZ255zKWjIW-67">
          <mxGeometry relative="1" as="geometry" />
        </mxCell>
        <mxCell id="IonNagwK2GZ255zKWjIW-58" value="kafka&lt;br style=&quot;border-color: var(--border-color);&quot;&gt;$tenant_error&lt;br&gt;诊断日志" style="rounded=1;whiteSpace=wrap;html=1;absoluteArcSize=1;arcSize=14;strokeWidth=2;" vertex="1" parent="1">
          <mxGeometry x="540" y="500" width="90" height="52.5" as="geometry" />
        </mxCell>
        <mxCell id="IonNagwK2GZ255zKWjIW-60" style="edgeStyle=orthogonalEdgeStyle;rounded=0;orthogonalLoop=1;jettySize=auto;html=1;entryX=0.85;entryY=1.019;entryDx=0;entryDy=0;entryPerimeter=0;startArrow=classic;startFill=1;endArrow=none;endFill=0;" edge="1" parent="1" source="IonNagwK2GZ255zKWjIW-58" target="IonNagwK2GZ255zKWjIW-10">
          <mxGeometry relative="1" as="geometry" />
        </mxCell>
        <mxCell id="IonNagwK2GZ255zKWjIW-61" value="故障（10分钟降采样）" style="edgeLabel;html=1;align=center;verticalAlign=middle;resizable=0;points=[];" vertex="1" connectable="0" parent="IonNagwK2GZ255zKWjIW-60">
          <mxGeometry x="-0.2402" relative="1" as="geometry">
            <mxPoint x="15" y="57" as="offset" />
          </mxGeometry>
        </mxCell>
        <mxCell id="IonNagwK2GZ255zKWjIW-62" value="" style="endArrow=classic;html=1;rounded=0;exitX=0.786;exitY=1.021;exitDx=0;exitDy=0;exitPerimeter=0;entryX=1.011;entryY=0.629;entryDx=0;entryDy=0;entryPerimeter=0;edgeStyle=orthogonalEdgeStyle;" edge="1" parent="1" source="IonNagwK2GZ255zKWjIW-21" target="IonNagwK2GZ255zKWjIW-58">
          <mxGeometry width="50" height="50" relative="1" as="geometry">
            <mxPoint x="1440" y="260" as="sourcePoint" />
            <mxPoint x="1490" y="210" as="targetPoint" />
            <Array as="points">
              <mxPoint x="1348" y="533" />
            </Array>
          </mxGeometry>
        </mxCell>
        <mxCell id="IonNagwK2GZ255zKWjIW-63" value="故障（10分钟降采样）" style="edgeLabel;html=1;align=center;verticalAlign=middle;resizable=0;points=[];" vertex="1" connectable="0" parent="IonNagwK2GZ255zKWjIW-62">
          <mxGeometry x="0.2928" y="2" relative="1" as="geometry">
            <mxPoint as="offset" />
          </mxGeometry>
        </mxCell>
        <mxCell id="IonNagwK2GZ255zKWjIW-66" value="" style="edgeStyle=orthogonalEdgeStyle;rounded=0;orthogonalLoop=1;jettySize=auto;html=1;" edge="1" parent="1" source="IonNagwK2GZ255zKWjIW-64" target="IonNagwK2GZ255zKWjIW-65">
          <mxGeometry relative="1" as="geometry" />
        </mxCell>
        <mxCell id="IonNagwK2GZ255zKWjIW-64" value="persistent-raw_properties&lt;br&gt;flume" style="rounded=1;whiteSpace=wrap;html=1;absoluteArcSize=1;arcSize=14;strokeWidth=2;" vertex="1" parent="1">
          <mxGeometry x="610" y="385" width="90" height="50" as="geometry" />
        </mxCell>
        <mxCell id="IonNagwK2GZ255zKWjIW-65" value="clickhouse" style="strokeWidth=2;html=1;shape=mxgraph.flowchart.direct_data;whiteSpace=wrap;" vertex="1" parent="1">
          <mxGeometry x="740" y="380" width="100" height="60" as="geometry" />
        </mxCell>
        <mxCell id="IonNagwK2GZ255zKWjIW-70" value="" style="edgeStyle=orthogonalEdgeStyle;rounded=0;orthogonalLoop=1;jettySize=auto;html=1;" edge="1" parent="1" source="IonNagwK2GZ255zKWjIW-67" target="IonNagwK2GZ255zKWjIW-69">
          <mxGeometry relative="1" as="geometry" />
        </mxCell>
        <mxCell id="IonNagwK2GZ255zKWjIW-67" value="persistent-logging&lt;br&gt;flume" style="rounded=1;whiteSpace=wrap;html=1;absoluteArcSize=1;arcSize=14;strokeWidth=2;" vertex="1" parent="1">
          <mxGeometry x="540" y="585" width="90" height="50" as="geometry" />
        </mxCell>
        <mxCell id="IonNagwK2GZ255zKWjIW-72" value="" style="edgeStyle=orthogonalEdgeStyle;rounded=0;orthogonalLoop=1;jettySize=auto;html=1;" edge="1" parent="1" source="IonNagwK2GZ255zKWjIW-69" target="IonNagwK2GZ255zKWjIW-71">
          <mxGeometry relative="1" as="geometry" />
        </mxCell>
        <mxCell id="IonNagwK2GZ255zKWjIW-69" value="cloki" style="rounded=1;whiteSpace=wrap;html=1;absoluteArcSize=1;arcSize=14;strokeWidth=2;" vertex="1" parent="1">
          <mxGeometry x="680" y="585" width="90" height="50" as="geometry" />
        </mxCell>
        <mxCell id="IonNagwK2GZ255zKWjIW-71" value="logging-service" style="rounded=1;whiteSpace=wrap;html=1;absoluteArcSize=1;arcSize=14;strokeWidth=2;" vertex="1" parent="1">
          <mxGeometry x="880" y="585" width="90" height="50" as="geometry" />
        </mxCell>
        <mxCell id="IonNagwK2GZ255zKWjIW-82" value="" style="edgeStyle=orthogonalEdgeStyle;rounded=0;orthogonalLoop=1;jettySize=auto;html=1;" edge="1" parent="1" source="IonNagwK2GZ255zKWjIW-74" target="IonNagwK2GZ255zKWjIW-75">
          <mxGeometry relative="1" as="geometry" />
        </mxCell>
        <mxCell id="IonNagwK2GZ255zKWjIW-74" value="工况-云云对接" style="strokeWidth=2;html=1;shape=mxgraph.flowchart.start_1;whiteSpace=wrap;" vertex="1" parent="1">
          <mxGeometry x="120" y="660" width="80" height="60" as="geometry" />
        </mxCell>
        <mxCell id="IonNagwK2GZ255zKWjIW-85" value="" style="edgeStyle=orthogonalEdgeStyle;rounded=0;orthogonalLoop=1;jettySize=auto;html=1;" edge="1" parent="1" source="IonNagwK2GZ255zKWjIW-75" target="IonNagwK2GZ255zKWjIW-77">
          <mxGeometry relative="1" as="geometry" />
        </mxCell>
        <mxCell id="IonNagwK2GZ255zKWjIW-75" value="kafka&lt;br&gt;$tenant_input&lt;br&gt;_thrid_party" style="rounded=1;whiteSpace=wrap;html=1;absoluteArcSize=1;arcSize=14;strokeWidth=2;" vertex="1" parent="1">
          <mxGeometry x="260" y="660" width="80" height="60.5" as="geometry" />
        </mxCell>
        <mxCell id="IonNagwK2GZ255zKWjIW-87" style="edgeStyle=orthogonalEdgeStyle;rounded=0;orthogonalLoop=1;jettySize=auto;html=1;entryX=0;entryY=0.5;entryDx=0;entryDy=0;" edge="1" parent="1" source="IonNagwK2GZ255zKWjIW-77" target="IonNagwK2GZ255zKWjIW-86">
          <mxGeometry relative="1" as="geometry" />
        </mxCell>
        <mxCell id="IonNagwK2GZ255zKWjIW-113" value="" style="edgeStyle=orthogonalEdgeStyle;rounded=0;orthogonalLoop=1;jettySize=auto;html=1;entryX=0.5;entryY=1;entryDx=0;entryDy=0;exitX=0.5;exitY=1;exitDx=0;exitDy=0;" edge="1" parent="1" source="IonNagwK2GZ255zKWjIW-77" target="IonNagwK2GZ255zKWjIW-98">
          <mxGeometry relative="1" as="geometry">
            <mxPoint x="475" y="765.25" as="sourcePoint" />
            <mxPoint x="975" y="890.2" as="targetPoint" />
            <Array as="points">
              <mxPoint x="430" y="850" />
              <mxPoint x="900" y="850" />
            </Array>
          </mxGeometry>
        </mxCell>
        <mxCell id="IonNagwK2GZ255zKWjIW-114" value="模型短路，不经过ECA" style="edgeLabel;html=1;align=center;verticalAlign=middle;resizable=0;points=[];" vertex="1" connectable="0" parent="IonNagwK2GZ255zKWjIW-113">
          <mxGeometry x="0.1242" y="-1" relative="1" as="geometry">
            <mxPoint as="offset" />
          </mxGeometry>
        </mxCell>
        <mxCell id="IonNagwK2GZ255zKWjIW-77" value="回补专用&lt;br&gt;access&lt;br&gt;（复用redis、PG）" style="rounded=1;whiteSpace=wrap;html=1;absoluteArcSize=1;arcSize=14;strokeWidth=2;" vertex="1" parent="1">
          <mxGeometry x="390" y="660" width="80" height="60.5" as="geometry" />
        </mxCell>
        <mxCell id="IonNagwK2GZ255zKWjIW-80" value="" style="edgeStyle=orthogonalEdgeStyle;rounded=0;orthogonalLoop=1;jettySize=auto;html=1;" edge="1" parent="1" source="IonNagwK2GZ255zKWjIW-78" target="IonNagwK2GZ255zKWjIW-79">
          <mxGeometry relative="1" as="geometry" />
        </mxCell>
        <mxCell id="IonNagwK2GZ255zKWjIW-78" value="独立kafka&lt;br&gt;raw_properties" style="rounded=1;whiteSpace=wrap;html=1;absoluteArcSize=1;arcSize=14;strokeWidth=2;dashed=1;" vertex="1" parent="1">
          <mxGeometry x="570" y="660" width="80" height="60.5" as="geometry" />
        </mxCell>
        <mxCell id="IonNagwK2GZ255zKWjIW-79" value="persistent-raw_properties&lt;br style=&quot;border-color: var(--border-color);&quot;&gt;flume" style="rounded=1;whiteSpace=wrap;html=1;absoluteArcSize=1;arcSize=14;strokeWidth=2;" vertex="1" parent="1">
          <mxGeometry x="820" y="660" width="80" height="60.5" as="geometry" />
        </mxCell>
        <mxCell id="IonNagwK2GZ255zKWjIW-81" style="edgeStyle=orthogonalEdgeStyle;rounded=0;orthogonalLoop=1;jettySize=auto;html=1;entryX=1;entryY=0.5;entryDx=0;entryDy=0;entryPerimeter=0;dashed=1;" edge="1" parent="1" source="IonNagwK2GZ255zKWjIW-79" target="IonNagwK2GZ255zKWjIW-65">
          <mxGeometry relative="1" as="geometry" />
        </mxCell>
        <mxCell id="IonNagwK2GZ255zKWjIW-83" value="实时链路" style="text;html=1;strokeColor=none;fillColor=none;align=center;verticalAlign=middle;whiteSpace=wrap;rounded=0;" vertex="1" parent="1">
          <mxGeometry x="135" y="273.75" width="60" height="30" as="geometry" />
        </mxCell>
        <mxCell id="IonNagwK2GZ255zKWjIW-84" value="历史数据迁移链路" style="text;html=1;strokeColor=none;fillColor=none;align=center;verticalAlign=middle;whiteSpace=wrap;rounded=0;" vertex="1" parent="1">
          <mxGeometry x="130" y="630" width="60" height="30" as="geometry" />
        </mxCell>
        <mxCell id="IonNagwK2GZ255zKWjIW-89" value="" style="edgeStyle=orthogonalEdgeStyle;rounded=0;orthogonalLoop=1;jettySize=auto;html=1;" edge="1" parent="1" source="IonNagwK2GZ255zKWjIW-86" target="IonNagwK2GZ255zKWjIW-88">
          <mxGeometry relative="1" as="geometry" />
        </mxCell>
        <mxCell id="IonNagwK2GZ255zKWjIW-86" value="独立kafka&lt;br&gt;$tenant_input" style="rounded=1;whiteSpace=wrap;html=1;absoluteArcSize=1;arcSize=14;strokeWidth=2;" vertex="1" parent="1">
          <mxGeometry x="570" y="760" width="80" height="60.5" as="geometry" />
        </mxCell>
        <mxCell id="IonNagwK2GZ255zKWjIW-88" value="回补专用eca" style="rounded=1;whiteSpace=wrap;html=1;absoluteArcSize=1;arcSize=14;strokeWidth=2;" vertex="1" parent="1">
          <mxGeometry x="710" y="760" width="80" height="60.5" as="geometry" />
        </mxCell>
        <mxCell id="IonNagwK2GZ255zKWjIW-91" value="" style="edgeStyle=orthogonalEdgeStyle;rounded=0;orthogonalLoop=1;jettySize=auto;html=1;" edge="1" parent="1" target="IonNagwK2GZ255zKWjIW-90">
          <mxGeometry relative="1" as="geometry">
            <mxPoint x="1070" y="280" as="sourcePoint" />
            <mxPoint x="1070" y="365" as="targetPoint" />
          </mxGeometry>
        </mxCell>
        <mxCell id="IonNagwK2GZ255zKWjIW-92" value="实时" style="edgeLabel;html=1;align=center;verticalAlign=middle;resizable=0;points=[];" vertex="1" connectable="0" parent="IonNagwK2GZ255zKWjIW-91">
          <mxGeometry x="-0.3468" y="2" relative="1" as="geometry">
            <mxPoint as="offset" />
          </mxGeometry>
        </mxCell>
        <mxCell id="IonNagwK2GZ255zKWjIW-90" value="kafka&lt;br&gt;$tenant_logical-persistent&lt;br&gt;(flume)" style="rounded=1;whiteSpace=wrap;html=1;strokeWidth=2;" vertex="1" parent="1">
          <mxGeometry x="990" y="340" width="160" height="50" as="geometry" />
        </mxCell>
        <mxCell id="IonNagwK2GZ255zKWjIW-96" value="" style="edgeStyle=orthogonalEdgeStyle;rounded=0;orthogonalLoop=1;jettySize=auto;html=1;" edge="1" parent="1" source="IonNagwK2GZ255zKWjIW-94" target="IonNagwK2GZ255zKWjIW-26">
          <mxGeometry relative="1" as="geometry" />
        </mxCell>
        <mxCell id="IonNagwK2GZ255zKWjIW-94" value="kafka&lt;br style=&quot;border-color: var(--border-color);&quot;&gt;$tenant_logical-persistent&lt;br&gt;_recoup&lt;br&gt;(flume)" style="rounded=1;whiteSpace=wrap;html=1;strokeWidth=2;" vertex="1" parent="1">
          <mxGeometry x="1165" y="330" width="155" height="60" as="geometry" />
        </mxCell>
        <mxCell id="IonNagwK2GZ255zKWjIW-99" value="" style="edgeStyle=orthogonalEdgeStyle;rounded=0;orthogonalLoop=1;jettySize=auto;html=1;endArrow=none;endFill=0;startArrow=block;startFill=1;" edge="1" parent="1" source="IonNagwK2GZ255zKWjIW-98" target="IonNagwK2GZ255zKWjIW-88">
          <mxGeometry relative="1" as="geometry" />
        </mxCell>
        <mxCell id="IonNagwK2GZ255zKWjIW-102" value="" style="edgeStyle=orthogonalEdgeStyle;rounded=0;orthogonalLoop=1;jettySize=auto;html=1;" edge="1" parent="1" source="IonNagwK2GZ255zKWjIW-98" target="IonNagwK2GZ255zKWjIW-101">
          <mxGeometry relative="1" as="geometry" />
        </mxCell>
        <mxCell id="IonNagwK2GZ255zKWjIW-98" value="独立kafka&lt;br&gt;$tenant_logical-persistent&lt;br&gt;(flume)" style="rounded=1;whiteSpace=wrap;html=1;strokeWidth=2;" vertex="1" parent="1">
          <mxGeometry x="830" y="765.25" width="140" height="50" as="geometry" />
        </mxCell>
        <mxCell id="IonNagwK2GZ255zKWjIW-116" value="" style="edgeStyle=orthogonalEdgeStyle;rounded=0;orthogonalLoop=1;jettySize=auto;html=1;" edge="1" parent="1" source="IonNagwK2GZ255zKWjIW-101" target="IonNagwK2GZ255zKWjIW-115">
          <mxGeometry relative="1" as="geometry" />
        </mxCell>
        <mxCell id="IonNagwK2GZ255zKWjIW-101" value="persistent-realTime-tdengine&lt;br&gt;(flume)" style="rounded=1;whiteSpace=wrap;html=1;strokeWidth=2;" vertex="1" parent="1">
          <mxGeometry x="1020" y="765.25" width="160" height="50" as="geometry" />
        </mxCell>
        <mxCell id="IonNagwK2GZ255zKWjIW-106" value="" style="edgeStyle=orthogonalEdgeStyle;rounded=0;orthogonalLoop=1;jettySize=auto;html=1;" edge="1" parent="1" source="IonNagwK2GZ255zKWjIW-104" target="IonNagwK2GZ255zKWjIW-32">
          <mxGeometry relative="1" as="geometry" />
        </mxCell>
        <mxCell id="IonNagwK2GZ255zKWjIW-104" value="tdEngine" style="strokeWidth=2;html=1;shape=mxgraph.flowchart.direct_data;whiteSpace=wrap;" vertex="1" parent="1">
          <mxGeometry x="1020" y="480" width="100" height="40" as="geometry" />
        </mxCell>
        <mxCell id="IonNagwK2GZ255zKWjIW-107" style="edgeStyle=orthogonalEdgeStyle;rounded=0;orthogonalLoop=1;jettySize=auto;html=1;exitX=0.5;exitY=1;exitDx=0;exitDy=0;entryX=0.5;entryY=0;entryDx=0;entryDy=0;entryPerimeter=0;" edge="1" parent="1" source="IonNagwK2GZ255zKWjIW-25" target="IonNagwK2GZ255zKWjIW-104">
          <mxGeometry relative="1" as="geometry" />
        </mxCell>
        <mxCell id="IonNagwK2GZ255zKWjIW-108" style="edgeStyle=orthogonalEdgeStyle;rounded=0;orthogonalLoop=1;jettySize=auto;html=1;entryX=0.8;entryY=1.025;entryDx=0;entryDy=0;entryPerimeter=0;dashed=1;exitX=0.5;exitY=0;exitDx=0;exitDy=0;exitPerimeter=0;" edge="1" parent="1" source="IonNagwK2GZ255zKWjIW-115" target="IonNagwK2GZ255zKWjIW-104">
          <mxGeometry relative="1" as="geometry" />
        </mxCell>
        <mxCell id="IonNagwK2GZ255zKWjIW-109" value="最后做数据合并" style="edgeLabel;html=1;align=center;verticalAlign=middle;resizable=0;points=[];" vertex="1" connectable="0" parent="IonNagwK2GZ255zKWjIW-108">
          <mxGeometry x="0.173" y="1" relative="1" as="geometry">
            <mxPoint as="offset" />
          </mxGeometry>
        </mxCell>
        <mxCell id="IonNagwK2GZ255zKWjIW-115" value="tdEngine" style="strokeWidth=2;html=1;shape=mxgraph.flowchart.direct_data;whiteSpace=wrap;" vertex="1" parent="1">
          <mxGeometry x="1230" y="770.25" width="100" height="40" as="geometry" />
        </mxCell>
        <mxCell id="IonNagwK2GZ255zKWjIW-157" style="edgeStyle=orthogonalEdgeStyle;rounded=0;orthogonalLoop=1;jettySize=auto;html=1;entryX=0.25;entryY=0;entryDx=0;entryDy=0;" edge="1" parent="1" source="IonNagwK2GZ255zKWjIW-119" target="IonNagwK2GZ255zKWjIW-6">
          <mxGeometry relative="1" as="geometry" />
        </mxCell>
        <mxCell id="IonNagwK2GZ255zKWjIW-119" value="access/tenant" style="strokeWidth=2;html=1;shape=mxgraph.flowchart.document2;whiteSpace=wrap;size=0.25;" vertex="1" parent="1">
          <mxGeometry x="380" y="120" width="100" height="40" as="geometry" />
        </mxCell>
        <mxCell id="IonNagwK2GZ255zKWjIW-121" value="分流规则" style="strokeWidth=2;html=1;shape=mxgraph.flowchart.document2;whiteSpace=wrap;size=0.25;" vertex="1" parent="1">
          <mxGeometry x="510" y="120" width="100" height="40" as="geometry" />
        </mxCell>
        <mxCell id="IonNagwK2GZ255zKWjIW-154" style="edgeStyle=orthogonalEdgeStyle;rounded=0;orthogonalLoop=1;jettySize=auto;html=1;entryX=0.59;entryY=-0.045;entryDx=0;entryDy=0;curved=1;entryPerimeter=0;" edge="1" parent="1" source="IonNagwK2GZ255zKWjIW-122" target="IonNagwK2GZ255zKWjIW-10">
          <mxGeometry relative="1" as="geometry" />
        </mxCell>
        <mxCell id="IonNagwK2GZ255zKWjIW-122" value="物模型" style="strokeWidth=2;html=1;shape=mxgraph.flowchart.document2;whiteSpace=wrap;size=0.25;" vertex="1" parent="1">
          <mxGeometry x="630" y="120" width="100" height="40" as="geometry" />
        </mxCell>
        <mxCell id="IonNagwK2GZ255zKWjIW-129" value="" style="edgeStyle=orthogonalEdgeStyle;rounded=0;orthogonalLoop=1;jettySize=auto;html=1;" edge="1" parent="1" source="IonNagwK2GZ255zKWjIW-123" target="IonNagwK2GZ255zKWjIW-121">
          <mxGeometry relative="1" as="geometry" />
        </mxCell>
        <mxCell id="IonNagwK2GZ255zKWjIW-123" value="pg" style="strokeWidth=2;html=1;shape=mxgraph.flowchart.direct_data;whiteSpace=wrap;" vertex="1" parent="1">
          <mxGeometry x="510" y="50" width="100" height="40" as="geometry" />
        </mxCell>
        <mxCell id="IonNagwK2GZ255zKWjIW-125" value="https://www.processon.com/view/link/64fc22ec2c1a257ae996f3de" style="text;html=1;strokeColor=none;fillColor=none;align=center;verticalAlign=middle;whiteSpace=wrap;rounded=0;" vertex="1" parent="1">
          <mxGeometry x="-200" y="940" width="60" height="30" as="geometry" />
        </mxCell>
        <mxCell id="IonNagwK2GZ255zKWjIW-128" value="" style="edgeStyle=orthogonalEdgeStyle;rounded=0;orthogonalLoop=1;jettySize=auto;html=1;" edge="1" parent="1" source="IonNagwK2GZ255zKWjIW-127" target="IonNagwK2GZ255zKWjIW-123">
          <mxGeometry relative="1" as="geometry" />
        </mxCell>
        <mxCell id="IonNagwK2GZ255zKWjIW-127" value="iothub-access-api&lt;br&gt;&amp;amp;iothub-api" style="rounded=1;whiteSpace=wrap;html=1;absoluteArcSize=1;arcSize=14;strokeWidth=2;fillColor=#ffe6cc;strokeColor=#d79b00;" vertex="1" parent="1">
          <mxGeometry x="520" y="-30" width="80" height="52.5" as="geometry" />
        </mxCell>
        <mxCell id="IonNagwK2GZ255zKWjIW-131" style="edgeStyle=orthogonalEdgeStyle;rounded=0;orthogonalLoop=1;jettySize=auto;html=1;" edge="1" parent="1" source="IonNagwK2GZ255zKWjIW-172" target="IonNagwK2GZ255zKWjIW-119">
          <mxGeometry relative="1" as="geometry" />
        </mxCell>
        <mxCell id="IonNagwK2GZ255zKWjIW-130" value="redis" style="strokeWidth=2;html=1;shape=mxgraph.flowchart.direct_data;whiteSpace=wrap;" vertex="1" parent="1">
          <mxGeometry x="380" y="-90" width="100" height="40" as="geometry" />
        </mxCell>
        <mxCell id="IonNagwK2GZ255zKWjIW-133" style="edgeStyle=orthogonalEdgeStyle;rounded=0;orthogonalLoop=1;jettySize=auto;html=1;entryX=0.65;entryY=1.05;entryDx=0;entryDy=0;entryPerimeter=0;" edge="1" parent="1" source="IonNagwK2GZ255zKWjIW-127" target="IonNagwK2GZ255zKWjIW-130">
          <mxGeometry relative="1" as="geometry" />
        </mxCell>
        <mxCell id="IonNagwK2GZ255zKWjIW-134" value="iothub-api" style="rounded=1;whiteSpace=wrap;html=1;absoluteArcSize=1;arcSize=14;strokeWidth=2;fillColor=#ffe6cc;strokeColor=#d79b00;" vertex="1" parent="1">
          <mxGeometry x="650" y="-96.25" width="80" height="52.5" as="geometry" />
        </mxCell>
        <mxCell id="IonNagwK2GZ255zKWjIW-135" style="edgeStyle=orthogonalEdgeStyle;rounded=0;orthogonalLoop=1;jettySize=auto;html=1;entryX=1;entryY=0.5;entryDx=0;entryDy=0;entryPerimeter=0;" edge="1" parent="1" source="IonNagwK2GZ255zKWjIW-134" target="IonNagwK2GZ255zKWjIW-130">
          <mxGeometry relative="1" as="geometry" />
        </mxCell>
        <mxCell id="IonNagwK2GZ255zKWjIW-136" value="物模型" style="strokeWidth=2;html=1;shape=mxgraph.flowchart.document2;whiteSpace=wrap;size=0.25;" vertex="1" parent="1">
          <mxGeometry x="900" y="-90" width="100" height="40" as="geometry" />
        </mxCell>
        <mxCell id="IonNagwK2GZ255zKWjIW-137" style="edgeStyle=orthogonalEdgeStyle;rounded=0;orthogonalLoop=1;jettySize=auto;html=1;entryX=0.284;entryY=0.004;entryDx=0;entryDy=0;entryPerimeter=0;" edge="1" parent="1" source="IonNagwK2GZ255zKWjIW-136" target="IonNagwK2GZ255zKWjIW-21">
          <mxGeometry relative="1" as="geometry" />
        </mxCell>
        <mxCell id="IonNagwK2GZ255zKWjIW-139" style="edgeStyle=orthogonalEdgeStyle;rounded=0;orthogonalLoop=1;jettySize=auto;html=1;entryX=0;entryY=0.5;entryDx=0;entryDy=0;entryPerimeter=0;" edge="1" parent="1" source="IonNagwK2GZ255zKWjIW-134" target="IonNagwK2GZ255zKWjIW-136">
          <mxGeometry relative="1" as="geometry" />
        </mxCell>
        <mxCell id="IonNagwK2GZ255zKWjIW-145" style="rounded=0;orthogonalLoop=1;jettySize=auto;html=1;entryX=0.5;entryY=0;entryDx=0;entryDy=0;entryPerimeter=0;edgeStyle=orthogonalEdgeStyle;" edge="1" parent="1" target="IonNagwK2GZ255zKWjIW-130">
          <mxGeometry relative="1" as="geometry">
            <mxPoint x="1295" y="218.75" as="sourcePoint" />
            <mxPoint x="500" y="-90" as="targetPoint" />
            <Array as="points">
              <mxPoint x="1295" y="-130" />
              <mxPoint x="430" y="-130" />
            </Array>
          </mxGeometry>
        </mxCell>
        <mxCell id="IonNagwK2GZ255zKWjIW-146" value="realTime" style="edgeLabel;html=1;align=center;verticalAlign=middle;resizable=0;points=[];" vertex="1" connectable="0" parent="IonNagwK2GZ255zKWjIW-145">
          <mxGeometry x="0.3375" y="3" relative="1" as="geometry">
            <mxPoint x="-1" as="offset" />
          </mxGeometry>
        </mxCell>
        <mxCell id="IonNagwK2GZ255zKWjIW-184" style="edgeStyle=orthogonalEdgeStyle;rounded=0;orthogonalLoop=1;jettySize=auto;html=1;endArrow=none;endFill=0;" edge="1" parent="1" source="IonNagwK2GZ255zKWjIW-147" target="IonNagwK2GZ255zKWjIW-177">
          <mxGeometry relative="1" as="geometry" />
        </mxCell>
        <mxCell id="IonNagwK2GZ255zKWjIW-147" value="mongoDB&lt;br&gt;metadata" style="strokeWidth=2;html=1;shape=mxgraph.flowchart.direct_data;whiteSpace=wrap;" vertex="1" parent="1">
          <mxGeometry x="770" y="40" width="100" height="60" as="geometry" />
        </mxCell>
        <mxCell id="IonNagwK2GZ255zKWjIW-148" style="edgeStyle=orthogonalEdgeStyle;rounded=0;orthogonalLoop=1;jettySize=auto;html=1;entryX=0.112;entryY=-0.007;entryDx=0;entryDy=0;entryPerimeter=0;startArrow=classic;startFill=1;endArrow=none;endFill=0;" edge="1" parent="1" source="IonNagwK2GZ255zKWjIW-147" target="IonNagwK2GZ255zKWjIW-21">
          <mxGeometry relative="1" as="geometry" />
        </mxCell>
        <mxCell id="IonNagwK2GZ255zKWjIW-149" value="DeviceStatus" style="edgeLabel;html=1;align=center;verticalAlign=middle;resizable=0;points=[];" vertex="1" connectable="0" parent="IonNagwK2GZ255zKWjIW-148">
          <mxGeometry x="-0.202" relative="1" as="geometry">
            <mxPoint as="offset" />
          </mxGeometry>
        </mxCell>
        <mxCell id="IonNagwK2GZ255zKWjIW-152" style="edgeStyle=orthogonalEdgeStyle;rounded=0;orthogonalLoop=1;jettySize=auto;html=1;entryX=0.358;entryY=0.036;entryDx=0;entryDy=0;entryPerimeter=0;curved=1;" edge="1" parent="1" source="IonNagwK2GZ255zKWjIW-119" target="IonNagwK2GZ255zKWjIW-10">
          <mxGeometry relative="1" as="geometry" />
        </mxCell>
        <mxCell id="IonNagwK2GZ255zKWjIW-153" style="edgeStyle=orthogonalEdgeStyle;rounded=0;orthogonalLoop=1;jettySize=auto;html=1;entryX=0.5;entryY=0;entryDx=0;entryDy=0;curved=1;" edge="1" parent="1" source="IonNagwK2GZ255zKWjIW-121" target="IonNagwK2GZ255zKWjIW-10">
          <mxGeometry relative="1" as="geometry" />
        </mxCell>
        <mxCell id="IonNagwK2GZ255zKWjIW-160" value="" style="edgeStyle=orthogonalEdgeStyle;rounded=0;orthogonalLoop=1;jettySize=auto;html=1;" edge="1" parent="1" source="IonNagwK2GZ255zKWjIW-158" target="IonNagwK2GZ255zKWjIW-159">
          <mxGeometry relative="1" as="geometry" />
        </mxCell>
        <mxCell id="IonNagwK2GZ255zKWjIW-158" value="iothub-scheduler" style="rounded=1;whiteSpace=wrap;html=1;absoluteArcSize=1;arcSize=14;strokeWidth=2;fillColor=#ffe6cc;strokeColor=#d79b00;" vertex="1" parent="1">
          <mxGeometry x="195" y="-50" width="80" height="52.5" as="geometry" />
        </mxCell>
        <mxCell id="IonNagwK2GZ255zKWjIW-159" value="kafka&lt;br&gt;mqtt_&lt;br&gt;connect_syc" style="rounded=1;whiteSpace=wrap;html=1;absoluteArcSize=1;arcSize=14;strokeWidth=2;" vertex="1" parent="1">
          <mxGeometry x="195" y="37.5" width="80" height="52.5" as="geometry" />
        </mxCell>
        <mxCell id="IonNagwK2GZ255zKWjIW-161" style="edgeStyle=orthogonalEdgeStyle;rounded=0;orthogonalLoop=1;jettySize=auto;html=1;entryX=0.1;entryY=0.048;entryDx=0;entryDy=0;entryPerimeter=0;curved=1;" edge="1" parent="1" source="IonNagwK2GZ255zKWjIW-159" target="IonNagwK2GZ255zKWjIW-10">
          <mxGeometry relative="1" as="geometry" />
        </mxCell>
        <mxCell id="IonNagwK2GZ255zKWjIW-162" value="在线状态校正" style="edgeLabel;html=1;align=center;verticalAlign=middle;resizable=0;points=[];" vertex="1" connectable="0" parent="IonNagwK2GZ255zKWjIW-161">
          <mxGeometry x="-0.576" y="-3" relative="1" as="geometry">
            <mxPoint as="offset" />
          </mxGeometry>
        </mxCell>
        <mxCell id="IonNagwK2GZ255zKWjIW-163" value="1" style="ellipse;whiteSpace=wrap;html=1;aspect=fixed;fillColor=#d80073;fontColor=#ffffff;strokeColor=#A50040;" vertex="1" parent="1">
          <mxGeometry x="210" y="211.75" width="30" height="30" as="geometry" />
        </mxCell>
        <mxCell id="IonNagwK2GZ255zKWjIW-164" value="2" style="ellipse;whiteSpace=wrap;html=1;aspect=fixed;fillColor=#d80073;fontColor=#ffffff;strokeColor=#A50040;" vertex="1" parent="1">
          <mxGeometry x="344" y="211.75" width="30" height="30" as="geometry" />
        </mxCell>
        <mxCell id="IonNagwK2GZ255zKWjIW-165" value="3" style="ellipse;whiteSpace=wrap;html=1;aspect=fixed;fillColor=#d80073;fontColor=#ffffff;strokeColor=#A50040;" vertex="1" parent="1">
          <mxGeometry x="465" y="211.75" width="30" height="30" as="geometry" />
        </mxCell>
        <mxCell id="IonNagwK2GZ255zKWjIW-166" value="1.1" style="ellipse;whiteSpace=wrap;html=1;aspect=fixed;fillColor=#d80073;fontColor=#ffffff;strokeColor=#A50040;" vertex="1" parent="1">
          <mxGeometry x="260" y="150" width="30" height="30" as="geometry" />
        </mxCell>
        <mxCell id="IonNagwK2GZ255zKWjIW-167" value="2" style="ellipse;whiteSpace=wrap;html=1;aspect=fixed;fillColor=#d80073;fontColor=#ffffff;strokeColor=#A50040;" vertex="1" parent="1">
          <mxGeometry x="210" y="293.75" width="30" height="30" as="geometry" />
        </mxCell>
        <mxCell id="IonNagwK2GZ255zKWjIW-168" style="edgeStyle=orthogonalEdgeStyle;rounded=0;orthogonalLoop=1;jettySize=auto;html=1;entryX=0.179;entryY=1.038;entryDx=0;entryDy=0;entryPerimeter=0;" edge="1" parent="1" source="IonNagwK2GZ255zKWjIW-43" target="IonNagwK2GZ255zKWjIW-10">
          <mxGeometry relative="1" as="geometry" />
        </mxCell>
        <mxCell id="IonNagwK2GZ255zKWjIW-169" value="3" style="ellipse;whiteSpace=wrap;html=1;aspect=fixed;fillColor=#d80073;fontColor=#ffffff;strokeColor=#A50040;" vertex="1" parent="1">
          <mxGeometry x="470" y="310" width="30" height="30" as="geometry" />
        </mxCell>
        <mxCell id="IonNagwK2GZ255zKWjIW-171" value="1.2" style="ellipse;whiteSpace=wrap;html=1;aspect=fixed;fillColor=#d80073;fontColor=#ffffff;strokeColor=#A50040;" vertex="1" parent="1">
          <mxGeometry x="320" y="400" width="30" height="30" as="geometry" />
        </mxCell>
        <mxCell id="IonNagwK2GZ255zKWjIW-173" value="" style="edgeStyle=orthogonalEdgeStyle;rounded=0;orthogonalLoop=1;jettySize=auto;html=1;" edge="1" parent="1" source="IonNagwK2GZ255zKWjIW-130" target="IonNagwK2GZ255zKWjIW-172">
          <mxGeometry relative="1" as="geometry">
            <mxPoint x="430" y="-50" as="sourcePoint" />
            <mxPoint x="430" y="120" as="targetPoint" />
          </mxGeometry>
        </mxCell>
        <mxCell id="IonNagwK2GZ255zKWjIW-174" value="接入信息" style="edgeLabel;html=1;align=center;verticalAlign=middle;resizable=0;points=[];" vertex="1" connectable="0" parent="IonNagwK2GZ255zKWjIW-173">
          <mxGeometry x="-0.1765" y="-3" relative="1" as="geometry">
            <mxPoint as="offset" />
          </mxGeometry>
        </mxCell>
        <mxCell id="IonNagwK2GZ255zKWjIW-172" value="4" style="ellipse;whiteSpace=wrap;html=1;aspect=fixed;fillColor=#d80073;fontColor=#ffffff;strokeColor=#A50040;" vertex="1" parent="1">
          <mxGeometry x="415" y="40" width="30" height="30" as="geometry" />
        </mxCell>
        <mxCell id="IonNagwK2GZ255zKWjIW-175" value="5" style="ellipse;whiteSpace=wrap;html=1;aspect=fixed;fillColor=#d80073;fontColor=#ffffff;strokeColor=#A50040;" vertex="1" parent="1">
          <mxGeometry x="520" y="90" width="30" height="30" as="geometry" />
        </mxCell>
        <mxCell id="IonNagwK2GZ255zKWjIW-177" value="6" style="ellipse;whiteSpace=wrap;html=1;aspect=fixed;fillColor=#d80073;fontColor=#ffffff;strokeColor=#A50040;" vertex="1" parent="1">
          <mxGeometry x="690" y="55" width="30" height="30" as="geometry" />
        </mxCell>
        <mxCell id="IonNagwK2GZ255zKWjIW-181" value="7.1" style="ellipse;whiteSpace=wrap;html=1;aspect=fixed;fillColor=#d80073;fontColor=#ffffff;strokeColor=#A50040;" vertex="1" parent="1">
          <mxGeometry x="692" y="207.75" width="30" height="30" as="geometry" />
        </mxCell>
        <mxCell id="IonNagwK2GZ255zKWjIW-182" value="7.2" style="ellipse;whiteSpace=wrap;html=1;aspect=fixed;fillColor=#d80073;fontColor=#ffffff;strokeColor=#A50040;" vertex="1" parent="1">
          <mxGeometry x="665" y="263.75" width="30" height="30" as="geometry" />
        </mxCell>
        <mxCell id="IonNagwK2GZ255zKWjIW-183" style="edgeStyle=orthogonalEdgeStyle;rounded=0;orthogonalLoop=1;jettySize=auto;html=1;entryX=0.75;entryY=0;entryDx=0;entryDy=0;entryPerimeter=0;" edge="1" parent="1" source="IonNagwK2GZ255zKWjIW-177" target="IonNagwK2GZ255zKWjIW-122">
          <mxGeometry relative="1" as="geometry" />
        </mxCell>
        <mxCell id="IonNagwK2GZ255zKWjIW-186" value="8" style="ellipse;whiteSpace=wrap;html=1;aspect=fixed;fillColor=#d80073;fontColor=#ffffff;strokeColor=#A50040;" vertex="1" parent="1">
          <mxGeometry x="660" y="351.25" width="30" height="30" as="geometry" />
        </mxCell>
        <mxCell id="IonNagwK2GZ255zKWjIW-187" value="9" style="ellipse;whiteSpace=wrap;html=1;aspect=fixed;fillColor=#d80073;fontColor=#ffffff;strokeColor=#A50040;" vertex="1" parent="1">
          <mxGeometry x="703" y="376" width="30" height="30" as="geometry" />
        </mxCell>
        <mxCell id="IonNagwK2GZ255zKWjIW-188" value="10" style="ellipse;whiteSpace=wrap;html=1;aspect=fixed;fillColor=#d80073;fontColor=#ffffff;strokeColor=#A50040;" vertex="1" parent="1">
          <mxGeometry x="722" y="170" width="30" height="30" as="geometry" />
        </mxCell>
        <mxCell id="IonNagwK2GZ255zKWjIW-189" value="11" style="ellipse;whiteSpace=wrap;html=1;aspect=fixed;fillColor=#d80073;fontColor=#ffffff;strokeColor=#A50040;" vertex="1" parent="1">
          <mxGeometry x="910" y="211.75" width="30" height="30" as="geometry" />
        </mxCell>
        <mxCell id="IonNagwK2GZ255zKWjIW-190" value="12" style="ellipse;whiteSpace=wrap;html=1;aspect=fixed;fillColor=#d80073;fontColor=#ffffff;strokeColor=#A50040;" vertex="1" parent="1">
          <mxGeometry x="1080" y="298.75" width="30" height="30" as="geometry" />
        </mxCell>
        <mxCell id="IonNagwK2GZ255zKWjIW-191" value="13" style="ellipse;whiteSpace=wrap;html=1;aspect=fixed;fillColor=#d80073;fontColor=#ffffff;strokeColor=#A50040;" vertex="1" parent="1">
          <mxGeometry x="1300" y="100" width="30" height="30" as="geometry" />
        </mxCell>
        <mxCell id="IonNagwK2GZ255zKWjIW-192" value="14" style="ellipse;whiteSpace=wrap;html=1;aspect=fixed;fillColor=#d80073;fontColor=#ffffff;strokeColor=#A50040;" vertex="1" parent="1">
          <mxGeometry x="1210" y="180" width="30" height="30" as="geometry" />
        </mxCell>
        <mxCell id="IonNagwK2GZ255zKWjIW-193" value="8" style="ellipse;whiteSpace=wrap;html=1;aspect=fixed;fillColor=#d80073;fontColor=#ffffff;strokeColor=#A50040;" vertex="1" parent="1">
          <mxGeometry x="1030" y="385" width="30" height="30" as="geometry" />
        </mxCell>
        <mxCell id="IonNagwK2GZ255zKWjIW-194" value="8" style="ellipse;whiteSpace=wrap;html=1;aspect=fixed;fillColor=#d80073;fontColor=#ffffff;strokeColor=#A50040;" vertex="1" parent="1">
          <mxGeometry x="1200" y="385" width="30" height="30" as="geometry" />
        </mxCell>
      </root>
    </mxGraphModel>
  </diagram>
</mxfile>
